<svg width="69" height="69" viewBox="0 0 69 69" fill="none" xmlns="http://www.w3.org/2000/svg">
<circle cx="34.5" cy="34.5" r="34.5" fill="white" fill-opacity="0"/>
<path d="M50.7716 18.203L38.65 11.0261C36.3288 9.65796 32.6947 9.65796 30.3736 11.0261L18.1347 18.251C13.2814 21.6114 13 22.1155 13 27.4682V40.5018C13 45.8545 13.2814 46.3825 18.2285 49.791L30.3501 56.9678C31.5223 57.664 33.0229 58 34.5 58C35.9771 58 37.4777 57.664 38.6265 56.9678L50.8653 49.743C55.7187 46.3825 56 45.8784 56 40.5259V27.4682C56 22.1155 55.7187 21.6114 50.7716 18.203Z" fill="currentColor" fill-opacity="0.5"/>
<path d="M34.0001 41C37.866 41 41 37.866 41 33.9999C41 30.134 37.866 27 34.0001 27C30.134 27 27 30.134 27 33.9999C27 37.866 30.134 41 34.0001 41Z" fill="currentColor"/>
</svg>
